PathFileType	4	(X/Y/Z)	RBDS012\RBDS012runT35.trc
DataRate	CameraRate	NumFrames	NumMarkers	Units	OrigDataRate	OrigDataStartFrame	OrigNumFrames
150.000000	150.000000	6	33	mm	150.000000	1125	4500
Frame#	Time	L.ASIS			L.Heel.Bottom			L.Heel.Lateral			L.Heel.Top			L.Iliac.Crest			L.MT1			L.MT5			L.PSIS			L.Shank.Bottom.Lateral			L.Shank.Bottom.Medial			L.Shank.Top.Lateral			L.Shank.Top.Medial			L.Thigh.Bottom.Lateral			L.Thigh.Bottom.Medial			L.Thigh.Top.Lateral			L.Thigh.Top.Medial			R.ASIS			R.ASY			R.Heel.Bottom			R.Heel.Lateral			R.Heel.Top			R.Iliac.Crest			R.MT1			R.MT5			R.PSIS			R.Shank.Bottom.Lateral			R.Shank.Bottom.Medial			R.Shank.Top.Lateral			R.Shank.Top.Medial			R.Thigh.Bottom.Lateral			R.Thigh.Bottom.Medial			R.Thigh.Top.Lateral			R.Thigh.Top.Medial			
		X1	Y1	Z1	X2	Y2	Z2	X3	Y3	Z3	X4	Y4	Z4	X5	Y5	Z5	X6	Y6	Z6	X7	Y7	Z7	X8	Y8	Z8	X9	Y9	Z9	X10	Y10	Z10	X11	Y11	Z11	X12	Y12	Z12	X13	Y13	Z13	X14	Y14	Z14	X15	Y15	Z15	X16	Y16	Z16	X17	Y17	Z17	X18	Y18	Z18	X19	Y19	Z19	X20	Y20	Z20	X21	Y21	Z21	X22	Y22	Z22	X23	Y23	Z23	X24	Y24	Z24	X25	Y25	Z25	X26	Y26	Z26	X27	Y27	Z27	X28	Y28	Z28	X29	Y29	Z29	X30	Y30	Z30	X31	Y31	Z31	X32	Y32	Z32	X33	Y33	Z33	

1126	7.500000000000001	2142.394925402355	1037.693361423708	920.5386957671301	2109.062616983528	114.7599564812639	1010.833969655351	2135.006068130196	121.4442926021957	960.5961051849669	2120.200059456088	163.4913067744506	1003.892563881651	2094.519027317442	1115.544851491406	875.7437463179797	2333.610081953168	121.2540183357766	1029.856336959444	2297.462499548747	110.939303846799	918.7513053376802	1983.501311541999	1092.615504891992	997.3197261501832	2198.190692851918	253.3730718263833	935.1714900057226	2158.965191144932	265.8799614852631	972.2103291304667	2202.897599873098	331.3479699097773	915.8004353157407	2166.412540950382	344.2409279553042	953.3766129146096	2258.469756695444	712.2888371701828	868.816810503769	2204.599403142561	669.8109458516633	892.1209568068157	2184.547441527569	793.2983684034848	856.4536063768056	2134.595218859329	754.8891981802127	881.9307955451524	2149.841212961031	1019.135847431367	1178.648253605219	1644.09861575821	134.3300891417037	1123.097291767276	1479.969092549193	248.7360320359496	1094.413325554503	1500.700145415298	240.3929704006743	1134.499293583325	1525.497800887905	270.9984545383979	1101.962066947678	2133.718621327264	1089.209633568489	1196.509668888776	1633.596796634912	86.64832278929464	1068.267294643915	1595.256889401834	98.53684631927325	1178.91166070861	1992.209751578812	1087.259133629984	1102.909094105098	1622.270312443987	303.2090732044386	1161.856180317555	1597.92814875178	329.1821322051403	1124.943196395327	1668.651622746811	372.6260192939127	1178.483072801105	1638.501639626816	397.4258740422248	1141.801553378376	1896.237814815765	663.5074803785349	1200.097387082583	1845.907705020996	689.1963245201814	1152.508372093955	1931.078872767922	766.4466058811076	1215.374079129896	1884.880953274088	791.0228204253852	1169.73007914625	
1127	7.506666666666667	2143.429554930796	1040.018620410712	920.5234674143338	2139.897007825081	98.13448864392592	1007.886253762291	2164.60716589004	107.4218528155118	957.4718257924814	2147.118738517877	147.5917302890822	1001.416257936118	2095.663902235132	1118.167582933506	875.7617542489894	2363.150332586138	121.5381976870409	1025.053464355876	2326.783664357131	109.9744597230889	914.0862764306889	1985.17286442386	1094.936599994491	997.6042916572007	2217.498141265808	244.4942367476445	932.9545927197026	2177.956748508544	253.8866317122041	970.4883320800197	2216.581470095158	322.6738341226448	914.1413249422191	2179.6602544732	332.6328973636303	952.1569913078512	2253.820578491752	707.284185567131	870.18149868198	2199.405094324167	666.2211643908955	894.5787433141555	2181.557351537098	789.7719749184607	857.843228495373	2131.028803958007	752.6457664859479	884.096231236311	2151.72232629477	1020.96999124876	1177.466620298519	1628.737384785367	145.3154806102581	1124.842509809783	1469.164573279622	264.7803914156258	1090.254041482542	1488.712490934901	256.577522696626	1130.875772229145	1515.41003292123	285.5867270753174	1098.519171135459	2136.593066673286	1091.23653280025	1195.216301020728	1617.960366579114	96.32722789012188	1070.946297115788	1577.094861920098	111.7645281638949	1180.096711897088	1994.263054779218	1090.252005270779	1103.379019420415	1611.828130456636	314.5820955621336	1160.530317096524	1588.866341212849	341.0121424208997	1123.088877968093	1660.103820461133	382.6498606772333	1177.305043231247	1631.226635417032	408.0326512976591	1140.045248570333	1895.215673903432	667.1674469601743	1199.919671013612	1845.154561543013	693.249285748477	1152.27138985993	1930.884712756755	769.784036584953	1215.32840303348	1884.844165684746	794.73894545665	1169.739146959532	
1128	7.513333333333334	2144.234733855023	1041.544711740041	920.3786091699118	2169.543144915398	83.44001277082991	1004.683983516052	2192.931246413397	95.19289432296651	954.1363588893897	2172.917364777187	133.3625806034911	998.7113581236732	2096.738234847227	1119.915023082382	875.7704900552134	2390.458752225204	123.2218276308224	1020.271546892218	2354.02774099118	110.4470761152094	909.4003980315255	1986.648712057168	1096.78626142001	997.8014176848917	2235.628588329665	236.6911104560806	930.6223414681543	2195.927052692214	243.0489171551973	968.5515734481182	2229.32562489437	314.7139231084028	912.3958089790109	2192.100992893599	321.8127728419157	950.7393949693982	2248.638475183437	701.4196375053089	871.2833595953863	2193.702943817367	661.8943843892588	896.9423417074275	2178.102502195109	785.3782602594752	858.8272904473333	2127.029715529679	749.6521470671183	886.0124949866251	2153.379229655535	1022.502894616007	1176.443799252021	1613.422906877913	157.2715721998055	1126.348954857448	1458.554728957639	281.1647399911749	1085.486496839348	1476.909481540061	273.3013032447292	1126.677394844786	1505.387959328978	300.5953115521433	1094.455050110177	2138.856761878499	1092.997702359907	1194.097724300261	1602.405613684901	106.9678653046503	1073.444831551395	1559.231445303086	126.3076665424914	1181.051195031753	1996.140552235413	1092.876674005036	1103.758472601857	1601.854482475006	326.4003548029452	1158.838864156304	1580.423060677965	353.4373231809212	1120.949710111681	1652.384440538239	392.7305739167032	1175.861955868807	1624.923543749011	418.8991912448551	1138.112030287271	1895.489459285684	669.66839064282	1199.834114525164	1845.547361170689	695.9483514757885	1152.195587264634	1931.584426547	772.0961836532913	1215.328417646661	1885.532233174791	797.2682385950166	1169.874024683886	
1129	7.52	2144.801609356162	1042.255038427594	920.1139516051907	2197.324092488848	70.68409286390592	1001.419438309544	2219.365354157269	84.69578007636849	950.7772915549997	2197.019798419012	120.8446986329966	995.9319515103141	2097.732217219598	1120.779580445936	875.757078032145	2415.117804916794	125.963443060341	1015.704740915218	2378.755786559466	111.9800827540987	904.898870399357	1987.910230193232	1098.123126082393	997.8963029186194	2252.219147027431	229.9127555855501	928.2921366170016	2212.493507846453	233.3720172672172	966.5253715265621	2240.860492680661	307.4854192456294	910.6647455992443	2203.453993856986	311.8491738704403	949.2405568685782	2243.169640313582	695.0027645806236	872.1107500827213	2187.744252785343	657.0775082433133	899.1133851131012	2174.367095195936	780.3639274271205	859.3668013273361	2122.795107151077	746.1055235281078	887.5875012393736	2154.824726729295	1023.75206278277	1175.578495669472	1598.296831836822	170.0769176371996	1127.518559664545	1448.34527635195	298.0501136414938	1080.430499171297	1465.567234297681	290.6324465989967	1122.183080764594	1495.682215085941	316.1131567504442	1090.023111348578	2140.524275826146	1094.547911093576	1193.154831182521	1586.895319053278	118.5612700752127	1075.607498487215	1541.880093938189	142.0188724409689	1181.722689129262	1997.838029246467	1095.087203441358	1104.023876293099	1592.553290148271	338.605337293347	1156.897469245068	1572.758520915547	366.3826750154023	1118.666846210408	1645.632041084384	402.8115836220458	1174.238951282143	1619.6995152854	429.9489687319096	1136.114698611073	1897.00834473508	670.9481241427117	1199.821427542684	1847.032367769088	697.2455049391115	1152.263078861029	1933.144140119758	773.3248388947153	1215.365580941537	1886.916791457685	798.558736534041	1170.119916120758	
1130	7.526666666666667	2145.128564517857	1042.152790428181	919.7448620187209	2222.5412607669	59.81117361616798	998.2866815507205	2243.283540187629	75.80939556737226	947.5836912587173	2218.84481971203	110.0248254448195	993.239668166343	2098.625032218377	1120.779237205593	875.711183795743	2436.741761887069	129.3053573032232	1011.546211902789	2400.555576865489	114.0971671202325	900.7871405220213	1988.941705781432	1098.898492204781	997.8829436667038	2266.911801014982	224.041163641152	926.083134517762	2227.277530089774	224.7994731634221	964.545833879807	2250.921770026679	300.9516375146265	909.0481128698132	2213.443522034371	302.7627009707462	947.7844973703483	2237.677341462322	688.3448919555268	872.687864671401	2181.789954339646	652.0123538602073	901.0126734981318	2170.553423599738	774.988509698709	859.4780979953745	2118.531402857228	742.2067717945824	888.7665631067737	2156.081590078084	1024.724341955458	1174.857847222558	1583.556391731646	183.6106126630238	1128.254624220511	1438.823525083844	315.6042846353783	1075.438340899781	1455.035860288081	308.6355765112036	1117.704451827092	1486.617220844949	332.2268028733566	1085.508376544927	2141.633036119536	1095.921755423979	1192.383817148627	1571.456253100572	131.1064444395135	1077.284921442723	1525.300370771363	158.732778446908	1182.072599675667	1999.351067204252	1096.830572866116	1104.158716825949	1584.166919451114	351.1152944240868	1154.830781556759	1566.066868347425	379.7505939000762	1116.392858893192	1640.01069952424	412.8203710618478	1172.528152072184	1615.684281505025	441.0860227278454	1134.175152104109	1899.69810901526	670.9701248713341	1199.856506929194	1849.543367359878	697.1181634281718	1152.439592688468	1935.506931474643	773.4310089054949	1215.427889959655	1888.959425308159	798.5773191930889	1170.448319785079	
1131	7.533333333333334	2145.222369651417	1041.261249557079	919.2906423257655	2244.513577061358	50.71112815730234	995.46360840608	2264.081799694618	68.36853485947161	944.729709740183	2237.839231114959	100.841083388126	990.7916918157927	2099.386194783034	1119.954824106276	875.6249157217588	2454.996747135672	132.6989553917378	1007.973953584547	2419.063323458047	116.2585909259648	897.2547829126693	1989.729621887936	1099.059176162432	997.7650062877224	2279.378303814085	218.9012758971347	924.1076494622241	2239.92761523833	217.2198866965898	962.7472414724228	2259.27152577925	295.0272475390846	907.6375122929433	2221.817305214377	294.5284202434807	946.4899889990522	2232.418142039876	681.73391068762	873.0689801506812	2176.088429027705	646.9143606038857	902.5853253147352	2166.862838093608	769.5011425605251	859.229050732416	2114.43603551884	738.1419481064746	889.5358564063586	2157.177673564093	1025.413169502278	1174.262286268245	1569.441002007403	197.7580166640154	1128.473312748295	1430.33549483431	333.9723827308593	1070.85622756813	1445.708575149494	327.3514872251083	1113.552174735617	1478.563016852991	349.000756579484	1081.199469538657	2142.23822077213	1097.127673079238	1191.778098330885	1556.186659508718	144.6062338072791	1078.34775223306	1509.777476749987	176.2728765972706	1182.078438396241	2000.67433343847	1098.046167248872	1104.155885203324	1576.951461144999	363.8304791260459	1152.761512408343	1560.559433233556	393.4259997208333	1114.275951604616	1635.692149144808	422.6719950621054	1170.821275764029	1613.018242749362	452.1995119243779	1132.411747431511	1903.465314838088	669.7234183561208	1199.913797002587	1853.007130119569	695.5686755182203	1152.678334927999	1938.597338347462	772.3952591213842	1215.503111048825	1891.615004353804	797.310551228585	1170.821178751127	
